<?xml version="1.0" encoding="UTF-8" standalone="no"?>
<!DOCTYPE svg PUBLIC "-//W3C//DTD SVG 1.1//EN" "http://www.w3.org/Graphics/SVG/1.1/DTD/svg11.dtd">
<svg width="100%" height="100%" viewBox="0 0 270 180" version="1.1" xmlns="http://www.w3.org/2000/svg" xmlns:xlink="http://www.w3.org/1999/xlink" xml:space="preserve" xmlns:serif="http://www.serif.com/" style="fill-rule:evenodd;clip-rule:evenodd;stroke-linejoin:round;stroke-miterlimit:2;">
    <g id="Layer1">
    </g>
    <g id="Layer11" serif:id="Layer1" transform="matrix(1,0,0,1,-1515,-1185)">
        <g transform="matrix(0.285864,0,0,0.285864,952.339,740.264)">
            <path d="M2440.59,1582.61C2552.45,1582.61 2643.26,1673.43 2643.26,1785.29C2643.26,1897.15 2552.45,1987.97 2440.59,1987.97C2328.72,1987.97 2237.91,1897.15 2237.91,1785.29C2237.91,1673.43 2328.72,1582.61 2440.59,1582.61ZM2365.23,1804.42C2352.57,1788.21 2345.03,1767.82 2345.03,1745.68C2345.03,1692.94 2387.85,1650.12 2440.59,1650.12C2493.33,1650.12 2536.15,1692.94 2536.15,1745.68C2536.15,1767.6 2528.75,1787.8 2516.32,1803.94L2516.36,1803.94L2439.83,1920.46L2365.23,1804.42ZM2440.59,1695.23C2468.43,1695.23 2491.03,1717.84 2491.03,1745.68C2491.03,1773.52 2468.43,1796.12 2440.59,1796.12C2412.74,1796.12 2390.14,1773.52 2390.14,1745.68C2390.14,1717.84 2412.74,1695.23 2440.59,1695.23Z" style="fill:white;"/>
        </g>
        <g transform="matrix(0.481394,0,0,0.481394,978.554,1189.83)">
            <path d="M1173.05,322.183L1173.05,322.083C1173.05,314.932 1168,309.986 1159.65,309.986L1145.35,309.986L1145.35,344.98L1153.05,344.98L1153.05,334.48L1158.9,334.48C1166.75,334.48 1173.05,330.284 1173.05,322.183ZM1165.25,322.333C1165.25,325.335 1163,327.636 1159.15,327.636L1153.05,327.636L1153.05,316.93L1159,316.93C1162.85,316.93 1165.25,318.781 1165.25,322.233L1165.25,322.333Z" style="fill:white;fill-rule:nonzero;"/>
            <path d="M1214.4,327.483L1214.4,327.383C1214.4,317.43 1206.65,309.386 1195.85,309.386C1185.05,309.386 1177.2,317.53 1177.2,327.483L1177.2,327.583C1177.2,337.536 1184.95,345.58 1195.75,345.58C1206.55,345.58 1214.4,337.436 1214.4,327.483ZM1206.35,327.583C1206.35,333.585 1202.05,338.486 1195.85,338.486C1189.65,338.486 1185.25,333.485 1185.25,327.483L1185.25,327.383C1185.25,321.381 1189.55,316.48 1195.75,316.48C1201.95,316.48 1206.35,321.481 1206.35,327.483L1206.35,327.583Z" style="fill:white;fill-rule:nonzero;"/>
            <path d="M1252,339.335L1247.1,334.385C1244.35,336.886 1241.9,338.486 1237.9,338.486C1231.9,338.486 1227.75,333.485 1227.75,327.483L1227.75,327.383C1227.75,321.381 1232,316.48 1237.9,316.48C1241.4,316.48 1244.15,317.98 1246.85,320.431L1251.75,314.781C1248.5,311.584 1244.55,309.386 1237.95,309.386C1227.2,309.386 1219.7,317.53 1219.7,327.483L1219.7,327.583C1219.7,337.636 1227.35,345.58 1237.65,345.58C1244.4,345.58 1248.4,343.182 1252,339.335Z" style="fill:white;fill-rule:nonzero;"/>
            <path d="M1290,344.98L1275.1,324.833L1289.35,309.986L1280.05,309.986L1265.85,325.283L1265.85,309.986L1258.15,309.986L1258.15,344.98L1265.85,344.98L1265.85,334.284L1269.9,330.084L1280.75,344.98L1290,344.98Z" style="fill:white;fill-rule:nonzero;"/>
            <path d="M1321.3,344.98L1321.3,338.136L1302.3,338.136L1302.3,330.78L1318.8,330.78L1318.8,323.936L1302.3,323.936L1302.3,316.83L1321.05,316.83L1321.05,309.986L1294.65,309.986L1294.65,344.98L1321.3,344.98Z" style="fill:white;fill-rule:nonzero;"/>
            <path d="M1354.65,317.08L1354.65,309.986L1325.65,309.986L1325.65,317.08L1336.3,317.08L1336.3,344.98L1344,344.98L1344,317.08L1354.65,317.08Z" style="fill:white;fill-rule:nonzero;"/>
            <path d="M1402.05,317.08L1402.05,309.986L1373.05,309.986L1373.05,317.08L1383.7,317.08L1383.7,344.98L1391.4,344.98L1391.4,317.08L1402.05,317.08Z" style="fill:white;fill-rule:nonzero;"/>
            <path d="M1438.2,344.98L1429.65,332.481C1434.1,330.833 1437.15,327.286 1437.15,321.633L1437.15,321.533C1437.15,314.332 1432.2,309.986 1423.95,309.986L1407.95,309.986L1407.95,344.98L1415.65,344.98L1415.65,333.78L1421.7,333.78L1429.2,344.98L1438.2,344.98ZM1429.35,322.033C1429.35,324.985 1427.2,326.986 1423.45,326.986L1415.65,326.986L1415.65,316.93L1423.3,316.93C1427.05,316.93 1429.35,318.631 1429.35,321.933L1429.35,322.033Z" style="fill:white;fill-rule:nonzero;"/>
            <path d="M1478.2,344.98L1463.2,309.736L1456.1,309.736L1441.1,344.98L1448.95,344.98L1452.15,337.13L1466.95,337.13L1470.15,344.98L1478.2,344.98ZM1464.2,330.336L1454.9,330.336L1459.55,318.983L1464.2,330.336Z" style="fill:white;fill-rule:nonzero;"/>
            <path d="M1510.7,309.986L1502.4,309.986L1493.25,334.634L1484.1,309.986L1475.6,309.986L1489.75,345.23L1496.55,345.23L1510.7,309.986Z" style="fill:white;fill-rule:nonzero;"/>
            <path d="M1542.75,344.98L1542.75,338.136L1523.75,338.136L1523.75,330.78L1540.25,330.78L1540.25,323.936L1523.75,323.936L1523.75,316.83L1542.5,316.83L1542.5,309.986L1516.1,309.986L1516.1,344.98L1542.75,344.98Z" style="fill:white;fill-rule:nonzero;"/>
            <path d="M1574.75,344.98L1574.75,337.986L1557.3,337.986L1557.3,309.986L1549.6,309.986L1549.6,344.98L1574.75,344.98Z" style="fill:white;fill-rule:nonzero;"/>
            <path d="M1607.2,344.98L1607.2,338.136L1588.2,338.136L1588.2,330.78L1604.7,330.78L1604.7,323.936L1588.2,323.936L1588.2,316.83L1606.95,316.83L1606.95,309.986L1580.55,309.986L1580.55,344.98L1607.2,344.98Z" style="fill:white;fill-rule:nonzero;"/>
            <path d="M1644.3,344.98L1635.75,332.481C1640.2,330.833 1643.25,327.286 1643.25,321.633L1643.25,321.533C1643.25,314.332 1638.3,309.986 1630.05,309.986L1614.05,309.986L1614.05,344.98L1621.75,344.98L1621.75,333.78L1627.8,333.78L1635.3,344.98L1644.3,344.98ZM1635.45,322.033C1635.45,324.985 1633.3,326.986 1629.55,326.986L1621.75,326.986L1621.75,316.93L1629.4,316.93C1633.15,316.93 1635.45,318.631 1635.45,321.933L1635.45,322.033Z" style="fill:white;fill-rule:nonzero;"/>
        </g>
    </g>
</svg>
