<?xml version="1.0" encoding="UTF-8" standalone="no"?>
<!DOCTYPE svg PUBLIC "-//W3C//DTD SVG 1.1//EN" "http://www.w3.org/Graphics/SVG/1.1/DTD/svg11.dtd">
<svg width="100%" height="100%" viewBox="0 0 2275 429" version="1.1" xmlns="http://www.w3.org/2000/svg" xmlns:xlink="http://www.w3.org/1999/xlink" xml:space="preserve" xmlns:serif="http://www.serif.com/" style="fill-rule:evenodd;clip-rule:evenodd;stroke-linejoin:round;stroke-miterlimit:2;">
    <g id="Artboard1" transform="matrix(1,0,0,0.986755,-896.787,-1409.88)">
        <rect x="896.787" y="1428.81" width="2274.01" height="434.104" style="fill:none;"/>
        <g transform="matrix(1,0,0,1.01342,-1333.14,-161.405)">
            <path d="M2440.59,1582.61C2552.45,1582.61 2643.26,1673.43 2643.26,1785.29C2643.26,1897.15 2552.45,1987.97 2440.59,1987.97C2328.72,1987.97 2237.91,1897.15 2237.91,1785.29C2237.91,1673.43 2328.72,1582.61 2440.59,1582.61ZM2365.23,1804.42C2352.57,1788.21 2345.03,1767.82 2345.03,1745.68C2345.03,1692.94 2387.85,1650.12 2440.59,1650.12C2493.33,1650.12 2536.15,1692.94 2536.15,1745.68C2536.15,1767.6 2528.75,1787.8 2516.32,1803.94L2516.36,1803.94L2439.83,1920.46L2365.23,1804.42ZM2440.59,1695.23C2468.43,1695.23 2491.03,1717.84 2491.03,1745.68C2491.03,1773.52 2468.43,1796.12 2440.59,1796.12C2412.74,1796.12 2390.14,1773.52 2390.14,1745.68C2390.14,1717.84 2412.74,1695.23 2440.59,1695.23Z" style="fill:rgb(228,59,38);"/>
        </g>
        <g transform="matrix(3.52712,0,0,3.57446,-2642.66,478.79)">
            <path d="M1172.3,321.133C1172.3,314.18 1167.1,309.986 1159.2,309.986L1146.1,309.986L1146.1,344.98L1150.05,344.98L1150.05,332.63L1158.55,332.63C1166,332.63 1172.3,328.736 1172.3,321.133ZM1168.3,321.283C1168.3,325.935 1164.5,329.036 1158.7,329.036L1150.05,329.036L1150.05,313.63L1158.9,313.63C1164.55,313.63 1168.3,316.231 1168.3,321.283Z" style="fill-rule:nonzero;"/>
            <path d="M1213.65,327.433C1213.65,317.731 1206.5,309.386 1195.85,309.386C1185.2,309.386 1177.95,317.831 1177.95,327.533C1177.95,337.235 1185.1,345.58 1195.75,345.58C1206.4,345.58 1213.65,337.135 1213.65,327.433ZM1209.55,327.533C1209.55,335.535 1203.85,341.936 1195.85,341.936C1187.85,341.936 1182.05,335.435 1182.05,327.433C1182.05,319.431 1187.75,313.03 1195.75,313.03C1203.75,313.03 1209.55,319.531 1209.55,327.533Z" style="fill-rule:nonzero;"/>
            <path d="M1252,339.436L1249.4,336.885C1246.05,340.086 1242.9,341.936 1238.1,341.936C1230.4,341.936 1224.55,335.585 1224.55,327.433C1224.55,319.281 1230.35,313.03 1238.1,313.03C1242.85,313.03 1246.15,315.03 1249.1,317.831L1251.8,314.93C1248.3,311.632 1244.5,309.386 1238.15,309.386C1227.85,309.386 1220.45,317.531 1220.45,327.533C1220.45,337.635 1227.9,345.58 1238,345.58C1244.35,345.58 1248.35,343.134 1252,339.436Z" style="fill-rule:nonzero;"/>
            <path d="M1273.05,325.283L1288.05,309.986L1282.95,309.986L1262.85,330.884L1262.85,309.986L1258.9,309.986L1258.9,344.98L1262.85,344.98L1262.85,335.585L1270.3,328.033L1283.75,344.98L1288.7,344.98L1273.05,325.283Z" style="fill-rule:nonzero;"/>
            <path d="M1320.15,309.986L1294.85,309.986L1294.85,344.98L1320.4,344.98L1320.4,341.386L1298.8,341.386L1298.8,329.13L1317.9,329.13L1317.9,325.536L1298.8,325.536L1298.8,313.58L1320.15,313.58L1320.15,309.986Z" style="fill-rule:nonzero;"/>
            <path d="M1341.6,313.63L1353.35,313.63L1353.35,309.986L1325.85,309.986L1325.85,313.63L1337.6,313.63L1337.6,344.98L1341.6,344.98L1341.6,313.63Z" style="fill-rule:nonzero;"/>
            <path d="M1389,313.63L1400.75,313.63L1400.75,309.986L1373.25,309.986L1373.25,313.63L1385,313.63L1385,344.98L1389,344.98L1389,313.63Z" style="fill-rule:nonzero;"/>
            <path d="M1437.1,344.98L1426.35,330.681C1431.85,329.683 1435.85,326.286 1435.85,320.433C1435.85,314.13 1430.9,309.986 1423.2,309.986L1408.15,309.986L1408.15,344.98L1412.1,344.98L1412.1,331.38L1422.1,331.38L1432.25,344.98L1437.1,344.98ZM1431.85,320.583C1431.85,325.135 1428.1,327.836 1422.85,327.836L1412.1,327.836L1412.1,313.63L1422.9,313.63C1428.55,313.63 1431.85,316.231 1431.85,320.583Z" style="fill-rule:nonzero;"/>
            <path d="M1460.95,309.736L1457.25,309.736L1441.3,344.98L1445.35,344.98L1449.5,335.73L1468.55,335.73L1472.65,344.98L1476.9,344.98L1460.95,309.736ZM1467,332.186L1451.05,332.186L1459.05,314.331L1467,332.186Z" style="fill-rule:nonzero;"/>
            <path d="M1492.65,340.135L1480.2,309.986L1475.8,309.986L1490.85,345.23L1494.35,345.23L1509.4,309.986L1505.15,309.986L1492.65,340.135Z" style="fill-rule:nonzero;"/>
            <path d="M1541.6,309.986L1516.3,309.986L1516.3,344.98L1541.85,344.98L1541.85,341.386L1520.25,341.386L1520.25,329.13L1539.35,329.13L1539.35,325.536L1520.25,325.536L1520.25,313.58L1541.6,313.58L1541.6,309.986Z" style="fill-rule:nonzero;"/>
            <path d="M1549.8,344.98L1573.45,344.98L1573.45,341.336L1553.75,341.336L1553.75,309.986L1549.8,309.986L1549.8,344.98Z" style="fill-rule:nonzero;"/>
            <path d="M1606.05,309.986L1580.75,309.986L1580.75,344.98L1606.3,344.98L1606.3,341.386L1584.7,341.386L1584.7,329.13L1603.8,329.13L1603.8,325.536L1584.7,325.536L1584.7,313.58L1606.05,313.58L1606.05,309.986Z" style="fill-rule:nonzero;"/>
            <path d="M1643.2,344.98L1632.45,330.681C1637.95,329.683 1641.95,326.286 1641.95,320.433C1641.95,314.13 1637,309.986 1629.3,309.986L1614.25,309.986L1614.25,344.98L1618.2,344.98L1618.2,331.38L1628.2,331.38L1638.35,344.98L1643.2,344.98ZM1637.95,320.583C1637.95,325.135 1634.2,327.836 1628.95,327.836L1618.2,327.836L1618.2,313.63L1629,313.63C1634.65,313.63 1637.95,316.231 1637.95,320.583Z" style="fill-rule:nonzero;"/>
        </g>
    </g>
</svg>
